<svg height="250pt" viewBox="0 0 250 250" width="250pt" xmlns="http://www.w3.org/2000/svg"><path d="m161.230469 110.558594c-10.242188 0-13.914063 13.300781-13.914063 28.816406 0 16.320312 4.003906 31.945312 12.964844 31.945312 3.839844 0 8.804688-2 11.523438-13.195312.480468-1.441406.625-4.375.625-4.375v-22.816406c0-1.59375.160156-3.554688 0-5.308594-.640626-8-5.28125-15.066406-11.199219-15.066406zm58.769531-90.558594h-190c-5.515625 0-10 4.484375-10 10v190c0 5.515625 4.484375 10 10 10h190c5.515625 0 10-4.484375 10-10v-190c0-5.515625-4.484375-10-10-10zm-87.5 160h-12.5l-21.214844-40.636719-21.285156 40.636719h-12.320312l27.410156-52.5-27.410156-52.5h12.320312l21.285156 40.636719 21.214844-40.636719h12.5l-27.5 52.5zm52.5-16.875c0 5.28125-.160156 12.394531 0 16.875h-12.5v-8.125c-2.398438 5.441406-6.941406 9.683594-15.09375 9.683594-13.121094 0-22.40625-16.578125-22.40625-42.183594 0-27.515625 11.515625-39.375 23.515625-39.375 5.597656 0 10.949219 2.820312 13.984375 9.375v-39.375h12.5zm0 0" fill="#015a85"/></svg>