<svg height="250pt" viewBox="0 0 250 250" width="250pt" xmlns="http://www.w3.org/2000/svg"><path d="m125 60c-67.285156 0-120 28.554688-120 65s52.714844 65 120 65 120-28.554688 120-65-52.714844-65-120-65zm-12.460938 20h13.105469l-4.160156 20h11.699219c7.421875 0 12.402344 1.035156 15.234375 3.632812 2.773437 2.558594 3.613281 6.757813 2.5 12.480469l-5.195313 23.886719h-13.320312l4.785156-22.089844c.585938-3.027344.351562-5.136718-.664062-6.25-1.015626-1.113281-3.242188-1.660156-6.582032-1.660156h-10.488281l-6.328125 30h-13.125zm-57.539062 20h26.660156c12.714844 0 20.410156 8.515625 17.402344 21.230469-3.496094 14.765625-12.871094 18.769531-30.097656 18.769531h-8.242188l-2.617187 15h-13.242188zm105 0h26.660156c12.714844 0 20.410156 8.515625 17.402344 21.230469-3.496094 14.765625-12.871094 18.769531-30.097656 18.769531h-8.242188l-2.617187 15h-13.242188zm-93.652344 10-3.769531 20h8.554687c7.402344 0 14.277344-.839844 15.429688-11.875.429688-4.277344-1.347656-8.125-9.902344-8.125zm105 0-3.769531 20h8.554687c7.402344 0 14.277344-.839844 15.429688-11.875.429688-4.277344-1.347656-8.125-9.902344-8.125zm0 0" fill="#015a85"/></svg>