<svg height="208pt" viewBox="0 0 208 208" width="208pt" xmlns="http://www.w3.org/2000/svg"><path d="m104.25 0c-57.1875 0-103.75 46.5625-103.75 103.75s46.5625 103.75 103.75 103.75 103.75-46.5625 103.75-103.75-46.5625-103.75-103.75-103.75zm0 4.75c54.5625 0 99 44.4375 99 99s-44.4375 99-99 99-99-44.4375-99-99 44.4375-99 99-99zm0 10c-31.09375 0-58.34375 15.84375-74.25 40 2.09375.0625 4.0625.25 5.75.25 9.3125 0 23.75-1.25 23.75-1.25 4.78125-.28125 5.28125 6.9375.5 7.5 0 0-4.90625.46875-10.25.75l32.5 96.25 19.5-58.25-14-38c-4.78125-.28125-9.25-.75-9.25-.75-4.8125-.28125-4.28125-7.78125.5-7.5 0 0 14.75 1.25 23.5 1.25 9.3125 0 23.75-1.25 23.75-1.25 4.8125-.28125 5.28125 6.9375.5 7.5 0 0-4.90625.46875-10.25.75l32.25 95.5 8.75-29.5c4.5-11.5625 6.75-21.125 6.75-28.75 0-11-3.84375-18.59375-7.25-24.5-4.5-7.34375-8.75-13.65625-8.75-21 0-8.15625 6.25-15.75 15-15.75.40625 0 .84375-.03125 1.25 0-15.84375-14.5-37.09375-23.25-60.25-23.25zm78 46.25c.40625 2.84375.75 5.96875.75 9.25 0 9.03125-1.6875 19.0625-6.75 31.75l-27.25 78.5c26.4375-15.4375 44.25-43.9375 44.25-76.75 0-15.46875-4.0625-30.09375-11-42.75zm-159.25 6.5c-4.9375 11.0625-7.75 23.34375-7.75 36.25 0 35.21875 20.5625 65.5625 50.25 80zm82.75 44-26.5 77.5c7.96875 2.34375 16.25 3.75 25 3.75 10.34375 0 20.25-2 29.5-5.25-.21875-.375-.3125-.5625-.5-1zm0 0" fill="#015a85"/></svg>