<svg height="250pt" viewBox="0 0 250 250" width="250pt" xmlns="http://www.w3.org/2000/svg"><path d="m144.0625.15625-140 26.5625c-2.363281.449219-4.0625 2.597656-4.0625 5v186.5625c0 2.402344 1.699219 4.550781 4.0625 5l140 26.5625c.3125.058594.625.15625.9375.15625 1.152344 0 2.226562-.351562 3.125-1.09375 1.152344-.957031 1.875-2.421875 1.875-3.90625v-240c0-1.484375-.722656-2.949219-1.875-3.90625-1.152344-.957031-2.597656-1.210938-4.0625-.9375zm15.9375 29.84375v35h10v10h-10v25h10v10h-10v25h10v10h-10v30h10v10h-10v35h75c5.507812 0 10-4.492188 10-10v-170c0-5.507812-4.492188-10-10-10zm20 35h40v10h-40zm-146.5625 13.4375h25.625l13.4375 27.96875c1.054688 2.207031 1.992188 4.921875 2.8125 7.96875h.15625c.527344-1.816406 1.542969-4.667969 2.96875-8.28125l14.84375-27.65625h23.4375l-27.96875 46.25 28.75 47.1875h-24.84375l-16.25-30.46875c-.605469-1.132812-1.230469-3.222656-1.875-6.25h-.15625c-.3125 1.425781-1.054688 3.652344-2.1875 6.5625l-16.25 30.15625h-25l29.84375-46.71875zm146.5625 21.5625h40v10h-40zm0 35h40v10h-40zm0 40h40v10h-40zm0 0" fill="#015a85"/></svg>