<svg height="256pt" viewBox="0 0 256 256" width="256pt" xmlns="http://www.w3.org/2000/svg"><path d="m100 8c-24.265625 0-44 19.734375-44 44 0 13.261719 5.925781 25.144531 15.234375 33.21875-13.816406 7.429688-23.234375 22.023438-23.234375 38.78125 0 14.886719 7.453125 28.035156 18.796875 36-11.34375 7.964844-18.796875 21.113281-18.796875 36 0 24.265625 19.734375 44 44 44s44-19.734375 44-44v-100h28c24.265625 0 44-19.734375 44-44s-19.734375-44-44-44zm0 16h64c15.441406 0 28 12.558594 28 28s-12.558594 28-28 28h-64c-15.441406 0-28-12.558594-28-28s12.558594-28 28-28zm-8 72h28v56h-28c-15.441406 0-28-12.558594-28-28s12.558594-28 28-28zm76 0c-17.671875 0-32 14.328125-32 32s14.328125 32 32 32 32-14.328125 32-32-14.328125-32-32-32zm-76 72h28v28c0 15.441406-12.558594 28-28 28s-28-12.558594-28-28 12.558594-28 28-28zm0 0" fill="#015a85"/></svg>