<svg height="250pt" viewBox="0 0 250 250" width="250pt" xmlns="http://www.w3.org/2000/svg"><path d="m226.367188 11.621094c-.9375-1.035156-2.285157-1.621094-3.691407-1.621094h-195.351562c-1.40625 0-2.753907.585938-3.691407 1.621094-.957031 1.035156-1.425781 2.421875-1.289062 3.828125l17.597656 197.128906c.175782 2.070313 1.621094 3.789063 3.613282 4.375l80.058593 22.851563c.429688.136718.898438.195312 1.367188.195312s.917969-.058594 1.367187-.195312l80.117188-22.851563c1.992187-.585937 3.417968-2.304687 3.613281-4.375l17.578125-197.128906c.136719-1.40625-.332031-2.792969-1.289062-3.828125zm-42.128907 67.96875h-94.0625l2.246094 25.449218h89.550781l-6.71875 75.214844-50.292968 15.195313-.488282-.15625-49.707031-15.058594-2.714844-30.644531h24.355469l1.054688 11.894531 27.792968 5.820313 27.285156-5.820313 2.910157-32.1875h-85.214844l-6.621094-74.023437h122.792969zm0 0" fill="#015a85"/></svg>