<svg height="256pt" viewBox="0 0 256 256" width="256pt" xmlns="http://www.w3.org/2000/svg"><path d="m128 32c-44.113281 0-80 35.886719-80 80 0 31.863281 19.0625 60.617188 48 73.25v38.75h64v-38.75c28.9375-12.632812 48-41.386719 48-73.25 0-44.113281-35.886719-80-80-80zm0 16c35.289062 0 64 28.710938 64 64 0 27.015625-17.152344 51.234375-42.671875 60.28125l-5.328125 1.875v33.84375h-32v-33.84375l-5.328125-1.890625c-25.519531-9.039063-42.671875-33.25-42.671875-60.265625 0-35.289062 28.710938-64 64-64zm0 32c-17.648438 0-32 14.351562-32 32s14.351562 32 32 32 32-14.351562 32-32-14.351562-32-32-32zm0 16c8.824219 0 16 7.175781 16 16s-7.175781 16-16 16-16-7.175781-16-16 7.175781-16 16-16zm0 0" fill="#015a85"/></svg>