<svg height="240pt" viewBox="0 0 240 240" width="240pt" xmlns="http://www.w3.org/2000/svg" xmlns:xlink="http://www.w3.org/1999/xlink"><linearGradient id="a" gradientUnits="userSpaceOnUse" x1="19.999998" x2="220.00003" y1="117.540014" y2="117.540014"><stop offset="0" stop-color="#015a85"/><stop offset="1" stop-color="#343434"/></linearGradient><filter id="b" height="100%" width="100%" x="0%" y="0%"><feColorMatrix in="SourceGraphic" type="matrix" values="0 0 0 0 1 0 0 0 0 1 0 0 0 0 1 0 0 0 1 0"/></filter><mask id="c"><g filter="url(#b)"><path d="m0 0h240v240h-240z" fill-opacity=".05098"/></g></mask><clipPath id="d"><path d="m0 0h240v240h-240z"/></clipPath><mask id="e"><g filter="url(#b)"><path d="m0 0h240v240h-240z" fill-opacity=".070588"/></g></mask><clipPath id="f"><path d="m0 0h240v240h-240z"/></clipPath><path d="m120 20c-55.230469 0-100 44.769531-100 100 0 44.433594 29.003906 82.054688 69.101562 95.078125h61.796876c40.097656-13.023437 69.101562-50.644531 69.101562-95.078125 0-55.230469-44.769531-100-100-100zm0 0" fill="url(#a)"/><g clip-path="url(#d)" mask="url(#c)"><path d="m150.050781 209.980469-.050781-28.992188c0-4.691406-1.101562-9.277343-3.210938-13.433593 28.207032-5.664063 41.929688-22.339844 41.929688-50.882813 0-11.277344-3.324219-21.230469-9.878906-29.601563.5-1.585937.871094-3.226562 1.101562-4.90625.9375-6.84375-.117187-11.320312-.964844-14.917968l-.136718-.582032c-.929688-3.980468-2.042969-6.820312-2.089844-6.9375l-1.109375-2.820312-1.511719-.160156-1.515625-.160156s-.992187-.105469-2.503906-.105469c-2.09375 0-5.199219.210937-8.132813 1.203125l-.980468.332031c-3.699219 1.246094-7.195313 2.425781-12.085938 5.34375-1.429687.855469-2.996094 1.832031-4.671875 2.921875-7.566406-1.875-15.714843-2.832031-24.238281-2.832031-8.609375 0-16.824219.960937-24.445312 2.855469-1.695313-1.101563-3.269532-2.085938-4.710938-2.945313-4.890625-2.917969-8.382812-4.09375-12.082031-5.34375l-.980469-.332031c-2.925781-.992188-6.035156-1.203125-8.132812-1.203125-1.507813 0-2.503907.105469-2.503907.105469l-1.507812.160156-1.5.152344-.5625 1.40625-.5625 1.414062c-.050781.132812-1.167969 2.972656-2.097657 6.957031l-.132812.574219c-.851562 3.59375-1.90625 8.074219-.964844 14.914062.238282 1.730469.625 3.425782 1.148438 5.054688-6.425782 8.332031-9.679688 18.230469-9.679688 29.453125 0 28.472656 13.738282 45.136719 41.984375 50.847656-.96875 1.941407-1.722656 3.992188-2.257812 6.121094-.988281.335937-1.890625.558594-2.691407.683594-1.191406.179687-2.433593.269531-3.695312.269531-3.429688 0-6.125-.667969-7.175781-1.292969-1.5625-.929687-4.359375-3.636719-7.070313-7.589843-2.3125-3.375-5.925781-7.789063-9.957031-9.636719-3.492187-1.59375-7.1875-2.507813-10.148437-2.507813-.6875 0-1.324219.046875-1.878907.136719-2.585937.410156-4.746093 1.832031-5.917969 3.902344-1.015624 1.785156-1.175781 3.863281-.441406 5.703125 1.09375 2.742187 4.253906 4.925781 6.714844 6.277344 1.210938.664062 3.824219 3.09375 5.351562 5.542968 1.144532 1.839844 1.671876 3.152344 2.410157 4.960938.433593 1.074218.914062 2.246094 1.5625 3.660156 2.351562 5.109375 9.6875 9.621094 10.515625 10.113281 4.03125 2.417969 10.804687 3.191407 15.785156 3.417969l.613281.015625h.007813c1.199218 0 2.847656-.117187 5.019531-.355469v13.0625c.007813 2.644532-2.6875 3.246094-6.25 3.191406l2.734375.917969c10.476562 3.746094 21.726562 5.886719 33.5 5.886719s23.023438-2.140625 33.515625-5.878906l3.515625-1.3125c-3.554688-.117188-6.953125-.699219-6.980469-2.828125zm0 0"/></g><g clip-path="url(#f)" mask="url(#e)"><path d="m153.90625 213.984375c-2.03125.234375-6.40625-.542969-6.40625-3.972656v-29.023438c0-5.46875-1.640625-10.753906-4.679688-15.257812 29.574219-4.785157 43.394532-20.464844 43.394532-49.058594 0-11.1875-3.429688-20.972656-10.195313-29.113281.683594-1.824219 1.164063-3.75 1.441407-5.734375.875-6.378907-.082032-10.429688-.921876-14.003907l-.132812-.582031c-.890625-3.804687-1.941406-6.484375-1.984375-6.59375l-.558594-1.410156-1.511719-.160156s-.890624-.09375-2.246093-.09375c-1.90625 0-4.71875.183593-7.332031 1.074219l-.976563.332031c-3.570313 1.203125-6.945313 2.339843-11.605469 5.117187-1.660156.992188-3.511718 2.15625-5.507812 3.472656-7.664063-2.007812-15.957032-3.027343-24.683594-3.027343-8.808594 0-17.175781 1.027343-24.894531 3.050781-2.015625-1.324219-3.875-2.496094-5.546875-3.496094-4.660156-2.777344-8.035156-3.917968-11.605469-5.117187l-.976563-.332031c-2.605468-.882813-5.425781-1.074219-7.332031-1.074219-1.355469 0-2.246093.09375-2.246093.09375l-1.507813.160156-.566406 1.414063c-.042969.113281-1.09375 2.792968-1.984375 6.597656l-.136719.578125c-.84375 3.574219-1.796875 7.621093-.917969 14 .28125 2.035156.78125 4.003906 1.488282 5.871093-6.632813 8.101563-9.992188 17.835938-9.992188 28.976563 0 28.511719 13.828125 44.1875 43.429688 49.027344-1.976563 2.949219-3.355469 6.277343-4.066407 9.820312-1.648437.652344-3.144531 1.082031-4.453125 1.28125-1.316406.199219-2.6875.300781-4.070312.300781-3.449219 0-6.765625-.648437-8.449219-1.648437-2.203125-1.304687-5.285156-4.566406-7.863281-8.324219-1.75-2.550781-5.234375-7.082031-8.9375-8.773437-3.175782-1.449219-6.492188-2.285157-9.105469-2.285157-.550781 0-1.050781.039063-1.492187.109376-1.828126.289062-3.339844 1.261718-4.136719 2.671874-.640625 1.117188-.746094 2.414063-.296875 3.539063.894531 2.238281 4.210937 4.25 5.59375 5.007813 1.675781.921874 4.597656 3.722656 6.269531 6.421874 1.257813 2.019532 1.851563 3.484376 2.605469 5.335938.425781 1.042969.890625 2.183594 1.519531 3.558594 1.65625 3.59375 6.765625 7.359375 9.527344 9.015625 3.769531 2.257812 10.769531 2.890625 14.609375 3.058593l.554687.011719c1.496094 0 4-.226562 7.476563-.675781v15.886719c0 3.894531-4.957032 4.046875-6.171875 4.046875-.152344 0 2.515625.921875 2.515625.921875 9.816406 3.21875 20.269531 5.019531 31.160156 5.019531s21.34375-1.800781 31.15625-5.015625c0 0 2.902344-1.019531 2.75-1zm0 0"/></g><path d="m183.71875 116.671875c0-11.550781-3.910156-21.132813-10.582031-28.640625.722656-1.625 1.476562-3.804688 1.851562-6.546875.863281-6.25-.152343-10-1.011719-13.667969-.863281-3.671875-1.875-6.25-1.875-6.25s-4.613281-.472656-8.515624.859375c-3.90625 1.328125-7.265626 2.34375-12.109376 5.234375-2.265624 1.351563-4.546874 2.828125-6.351562 4.03125-7.714844-2.140625-16.199219-3.242187-25.125-3.242187-9.003906 0-17.566406 1.105469-25.335938 3.261719-1.808593-1.207032-4.105468-2.695313-6.382812-4.054688-4.847656-2.890625-8.207031-3.90625-12.109375-5.234375-3.90625-1.332031-8.515625-.863281-8.515625-.863281s-1.015625 2.582031-1.875 6.25c-.859375 3.671875-1.875 7.421875-1.015625 13.671875.382813 2.808593 1.164063 5.03125 1.910156 6.664062-6.550781 7.464844-10.390625 16.984375-10.390625 28.519531 0 29.914063 16.160156 43.570313 45.605469 47.175782-3.4375 3.628906-5.742187 8.28125-6.515625 13.457031-1.933594.847656-4.164062 1.648437-6.308594 1.96875-5.519531.835937-11.355468 0-14.167968-1.664063-2.808594-1.667968-6.144532-5.417968-8.644532-9.066406-2.109375-3.082031-5.152344-6.65625-7.914062-7.914062-3.644532-1.667969-7.191406-2.292969-9.164063-1.980469-1.980469.3125-2.914062 1.769531-2.5 2.8125.414063 1.042969 2.394531 2.605469 4.480469 3.75 2.082031 1.148437 5.3125 4.273437 7.1875 7.292969 2.089844 3.367187 2.5 5.3125 4.269531 9.164062 1.246094 2.710938 5.507813 6.09375 8.542969 7.914063 2.605469 1.566406 7.808594 2.457031 13.4375 2.710937 1.945312.089844 6.542969-.480468 10.417969-1.03125v18.75c0 3.195313-2.925781 5.625-5.957031 5.066406 9.726562 3.269532 20.109374 4.929688 30.945312 4.929688 10.828125 0 21.214844-1.660156 30.949219-4.921875-3.023438.558594-5.949219-1.875-5.949219-5.066406v-29.023438c0-6.644531-2.636719-12.648437-6.863281-17.125 29.226562-3.507812 45.582031-16.839843 45.582031-47.191406zm-127.523438 46.964844c-.769531-.398438-1.183593-1.125-.925781-1.640625.261719-.515625 1.101563-.609375 1.871094-.214844s1.183594 1.125.925781 1.640625c-.261718.511719-1.101562.609375-1.871094.214844zm6.058594 3.773437c-.402344.441406-1.273437.300782-1.945312-.308594-.667969-.613281-.882813-1.464843-.480469-1.90625.40625-.441406 1.277344-.300781 1.945313.308594.671874.609375.886718 1.464844.480468 1.90625zm3.769532 6.25c-.507813.359375-1.375.023438-1.929688-.75-.554688-.773437-.589844-1.699218-.078125-2.058594.507813-.363281 1.375-.027343 1.929687.75.550782.773438.589844 1.699219.078126 2.058594zm5.417968 4.703125c-.347656.5625-1.328125.585938-2.1875.0625-.859375-.527343-1.277344-1.40625-.933594-1.964843.34375-.5625 1.324219-.585938 2.183594-.0625.859375.527343 1.28125 1.40625.9375 1.964843zm5.117188 4.605469c-1.0625-.128906-1.855469-.792969-1.761719-1.484375.082031-.6875 1.019531-1.140625 2.078125-1.007813 1.066406.128907 1.855469.792969 1.765625 1.484376-.085937.683593-1.015625 1.140624-2.082031 1.007812zm8.257812 1.195312c-1.136718-.0625-2.019531-.714843-1.976562-1.445312.046875-.730469 1-1.273438 2.136718-1.207031 1.132813.0625 2.019532.714843 1.972657 1.441406-.042969.738281-1 1.277344-2.132813 1.210937zm7.789063-.777343c-1.210938 0-2.191407-.632813-2.191407-1.40625 0-.777344.980469-1.40625 2.191407-1.40625 1.210937 0 2.191406.628906 2.191406 1.40625 0 .773437-.988281 1.40625-2.191406 1.40625zm0 0" fill="#fff"/></svg>