<svg height="250pt" viewBox="0 0 250 250" width="250pt" xmlns="http://www.w3.org/2000/svg"><path d="m149.335938 15.039062c-.527344.078126-1.054688.234376-1.5625.46875-4.296876 2.128907-9.179688 8.457032-10.117188 9.707032-.058594.078125-.117188.15625-.15625.234375-4.824219 7.226562-7.402344 15.683593-7.5 24.492187-.058594 6.601563 1.230469 13.144532 3.847656 19.453125 6.09375 14.628907 18.75 26.738281 33.808594 32.402344.507812.175781.996094.351563 1.875.664063.078125.039062.820312.273437.9375.292968l.546875.195313c.78125.253906 1.582031.507812 2.363281.664062 3.964844.800781 7.832032 1.25 11.464844 1.367188.625 0 1.25.019531 1.875.019531 27.402344 0 38.027344-19.335938 41.5625-25.78125.351562-.625.605469-1.132812.839844-1.445312 0-.019532 0-.019532.019531-.039063 1.542969-2.285156.957031-5.390625-1.328125-6.953125-2.265625-1.542969-5.371094-.957031-6.933594 1.328125h-.019531c-7.304687 10.761719-19.804687 14.023437-37.128906 9.726563-1.289063-.3125-2.695313-.800782-3.945313-1.269532-1.640625-.585937-3.28125-1.269531-4.804687-2.011718-3.027344-1.503907-5.878907-3.300782-8.457031-5.292969-15.234376-11.816407-21.191407-36.40625-12.285157-50.605469 1.191407-1.894531.976563-4.355469-.527343-6.015625-1.132813-1.25-2.773438-1.816406-4.375-1.601563zm-44.296876 9.960938c-1.132812-.019531-2.285156.351562-3.222656 1.132812-7.558594 6.152344-15.292968 16.230469-15.625 16.640626-.039062.078124-.078125.136718-.136718.214843-13.671876 19.902344-14.707032 48.222657-2.617188 72.148438 1.894531 3.789062 4.042969 7.402343 6.328125 10.722656l.683594.976563c1.933593 2.832031 4.101562 6.035156 6.875 8.535156.957031 1.09375 1.992187 2.148437 3.007812 3.164062l.488281.507813.410157.410156c1.035156.996094 2.089843 2.011719 3.183593 2.988281h.019532c.078125.117188.195312.195313.292968.292969 1.230469 1.09375 2.480469 2.128906 4.140626 3.4375l.449218.332031c1.289063 1.035156 2.597656 2.011719 3.945313 2.96875.136719.097656.273437.195313.410156.292969.46875.3125.9375.605469 1.40625.9375l.46875.3125.546875.351563c.996094.664062 1.972656 1.269531 3.359375 2.070312.898437.546875 1.855469 1.09375 2.480469 1.40625.273437.15625.566406.3125 1.25.683594l1.523437.800781c.078125.039063.429688.195313.507813.234375.996094.507812 2.03125.996094 3.066406 1.464844l1.582031.703125c1.035157.449219 2.089844.878906 3.378907 1.367187l.585937.214844c.039063.039062.527344.214844.566406.234375.9375.332031 1.894531.664063 2.851563.976563l2.1875.722656c1.09375.371094 2.363281.800781 3.75 1.035156 6.816406 1.132812 13.4375 1.71875 19.707031 1.71875.742187 0 1.484375-.019531 2.207031-.019531 55.195313-1.210938 69.550782-48.105469 69.6875-48.574219.683594-2.363281-.429687-4.882812-2.65625-5.9375-2.226562-1.054688-4.882812-.3125-6.269531 1.71875-13.984375 20.429688-40.429687 29.0625-67.363281 21.953125-1.25-.3125-2.460938-.664063-3.964844-1.152344-.253906-.078125-.46875-.15625-.878906-.3125-.878906-.273437-1.738282-.566406-2.714844-.9375l-1.386719-.527343c-.800781-.3125-1.601562-.625-2.578125-1.054688l-.644531-.292969c-1.191406-.507812-2.34375-1.074219-3.378906-1.582031l-2.851563-1.484375c-.644531-.3125-1.210937-.664063-2.089844-1.191406l-.488281-.273438-.488281-.292969c-.722656-.429687-1.445312-.878906-2.109375-1.347656l-.46875-.292968c-.039063-.019532-.429687-.292969-.46875-.332032-.585937-.371094-1.152344-.742187-1.699219-1.09375-1.210937-.859375-2.402344-1.757812-3.789062-2.851562l-.546875-.449219c-12.890625-10.292969-22.421875-24.042969-26.894531-38.789063-4.160157-13.535156-1.074219-31.25 8.261718-47.382812 1.210938-2.089844.761719-4.746094-1.09375-6.308594-.917968-.78125-2.050781-1.191406-3.183594-1.191406zm-55.019531 15c-1.191406 0-2.402343.429688-3.359375 1.289062-9.550781 8.574219-16.699218 19.6875-17.480468 20.957032-20.429688 29.746094-16.484376 75.976562-2.460938 104.238281.273438.585937.566406 1.152344.859375 1.71875l.195313.3125c.253906.566406.546874 1.152344.644531 1.269531.15625.371094.390625.78125.488281.898438.234375.488281.46875.917968.898438 1.660156l1.601562 2.753906c.234375.371094.46875.761719.546875.898438.3125.507812.644531 1.035156.976563 1.5625l.78125 1.25c.234374.371094.46875.703125.625.898437.78125 1.210938 1.5625 2.421875 2.421874 3.574219.039063.058594.078126.097656.117188.136719l.3125.429687c.703125 1.015625 1.425781 1.992188 2.070312 2.792969l2.851563 3.613281c.039063.039063.351563.410156.371094.449219l.410156.46875c.859375 1.054687 1.777344 2.109375 2.695313 3.125.136718.15625.273437.292969.410156.449219.878906.957031 1.777344 1.914062 2.714844 2.910156l.898437.859375c.742187.78125 1.484375 1.542969 2.265625 2.265625 0 .019531.371094.371094.371094.371094l.78125.722656c.9375.898438 1.914062 1.796875 2.65625 2.421875.039062.058594.742187.664063.800781.703125.917969.820312 1.835937 1.601562 2.773437 2.363281l4.785157 3.789063c.800781.585937 1.621093 1.171875 2.558593 1.855468.3125.234376.644532.46875.976563.683594.136719.117188.292969.234375.390625.292969l3.59375 2.402344c1.308594.859375 2.617188 1.660156 4.21875 2.617187l.859375.488282c.996094.585937 2.011719 1.171874 2.96875 1.679687.566406.3125 1.132813.585937 1.621094.839844.683593.371093 1.425781.78125 2.558593 1.328125.097657.058594.898438.449218.996094.488281 1.132813.566406 2.285156 1.09375 3.730469 1.738281 0 .019532.46875.234375.46875.234375 1.328125.566407 2.617187 1.113281 4.316406 1.796875.273438.117188.546875.214844.605469.234375 1.210938.46875 2.480469.9375 3.515625 1.308594.097656.039063.625.253906.722656.292969 1.386719.46875 2.753907.917968 4.511719 1.464844.292969.097656.605469.195312.644531.195312l.996094.3125c1.210937.371094 2.421875.761719 3.730469 1.015625 9.296875 1.699219 18.378906 2.578125 26.972656 2.578125h.019531c71.621094 0 94.433594-57.636719 94.667969-58.222656.878906-2.324219-.078125-4.941406-2.265625-6.152344-2.148437-1.191406-4.882813-.625-6.40625 1.347656-18.378906 24.199219-53.046875 33.183594-92.734375 24.0625-.957031-.234375-1.933594-.507812-2.890625-.800781l-1.875-.566406c-1.269531-.390625-2.539063-.820313-3.769531-1.25-.019532 0-.585938-.214844-.585938-.214844-1.09375-.371094-2.1875-.800781-3.144531-1.171875l-1.09375-.429688c-1.210937-.488281-2.421875-.996093-3.59375-1.523437l-.683594-.292969c-1.054687-.488281-2.070312-.957031-3.085937-1.464844-.078125-.039062-.878906-.429687-.957032-.449218-.703124-.351563-1.40625-.722656-2.304687-1.210938l-4.082031-2.1875c-.410156-.273437-.839844-.527344-1.25-.742187-1.230469-.761719-2.5-1.523438-3.75-2.324219-.292969-.175781-.546875-.371094-1.035156-.703125-.859376-.546875-1.699219-1.113281-2.929688-1.972656l-.488281-.351563c-.839844-.585937-1.660157-1.210937-2.34375-1.71875-.429688-.3125-.859375-.664062-1.5625-1.191406-.625-.488281-1.25-.957031-1.835938-1.425781l-1.09375-.898438c-.917969-.742187-1.777343-1.523437-2.675781-2.285156-.117188-.117187-.214844-.195313-.351562-.292969-.996094-.917968-2.011719-1.835937-3.222657-2.988281l-3.535156-3.515625c-.859375-.878906-1.71875-1.777344-2.695313-2.851562-.898437-.996094-1.757812-1.992188-2.910156-3.359376l-2.109375-2.578124c-.253906-.371094-.527343-.742188-.859375-1.132813-.722656-.976563-1.445312-1.933594-2.167968-2.949219-19.453126-26.796875-24.53125-82.734375-9.375-103.222656 1.523437-2.050781 1.25-4.941406-.664063-6.679688-.9375-.859374-2.148437-1.289062-3.339844-1.289062zm0 0" fill="#015a85"/></svg>