<svg height="250pt" viewBox="0 0 250 250" width="250pt" xmlns="http://www.w3.org/2000/svg"><path d="m155.839844 40c-2.34375-.058594-4.394532.839844-5.449219 3.4375-1.796875 4.355469 2.675781 8.613281 4.277344 10.839844 1.113281 1.542968 2.558593 3.28125 3.359375 5.019531.527344 1.152344.605468 2.304687 1.054687 3.515625 1.113281 2.988281 2.890625 6.386719 4.316407 9.160156.722656 1.40625 1.523437 2.871094 2.441406 4.121094.566406.761719 1.523437 1.113281 1.679687 2.285156-.9375 1.328125-.996093 3.378906-1.523437 5.058594-2.382813 7.519531-1.484375 16.875 1.972656 22.421875 1.074219 1.71875 3.59375 5.371094 7.03125 3.984375 3.007812-1.230469 2.34375-5.039062 3.203125-8.417969.195313-.742187.078125-1.308593.46875-1.816406v.15625c.898437 1.835937 1.816406 3.671875 2.734375 5.488281 2.050781 3.28125 5.664062 6.699219 8.710938 9.023438 1.582031 1.191406 2.832031 3.261718 4.882812 3.964844v-.15625h-.15625c-.390625-.625-1.015625-.878907-1.523438-1.367188-1.191406-1.171875-2.519531-2.636719-3.496093-3.984375-2.792969-3.769531-5.253907-7.910156-7.480469-12.207031-1.074219-2.050782-2.011719-4.316406-2.910156-6.40625-.351563-.820313-.351563-2.03125-1.074219-2.460938-.996094 1.542969-2.441406 2.773438-3.203125 4.589844-1.210938 2.890625-1.386719 6.425781-1.835938 10.078125-.273437.097656-.15625.019531-.292968.15625-2.128906-.527344-2.890625-2.714844-3.671875-4.589844-1.992188-4.746093-2.382813-12.402343-.605469-17.851562.449219-1.425781 2.5-5.878907 1.679688-7.1875-.390626-1.308594-1.71875-2.050781-2.441407-3.046875-.917969-1.230469-1.816406-2.851563-2.441406-4.277344-1.640625-3.710938-3.183594-8.007812-4.921875-11.757812-.820312-1.796876-2.207031-3.59375-3.359375-5.195313-1.269531-1.757813-2.675781-3.046875-3.671875-5.195313-.332031-.742187-.820312-1.953124-.292969-2.734374.15625-.527344.390625-.742188.917969-.917969.878906-.683594 3.339844.214843 4.277344.605469 2.441406 1.015624 4.492187 1.992187 6.5625 3.359374.996094.664063 1.992187 1.933594 3.203125 2.304688h1.367187c2.167969.488281 4.570313.136719 6.5625.761719 3.554688 1.074219 6.738282 2.753906 9.609375 4.570312 8.808594 5.546875 16.015625 13.457031 20.917969 22.890625.800781 1.523438 1.152344 2.988282 1.855469 4.589844 1.386719 3.242188 3.164062 6.601562 4.570312 9.765625 1.386719 3.183594 2.753907 6.367187 4.726563 9.003906 1.035156 1.386719 5.058594 2.148438 6.875 2.910157 1.269531.546874 3.378906 1.113281 4.570312 1.835937 2.324219 1.386719 4.550782 3.046875 6.71875 4.589844 1.09375.761719 4.414063 2.421875 4.589844 3.808593-5.371094-.136718-9.472656.351563-12.96875 1.835938-.996094.429688-2.597656.429688-2.753906 1.679688.527344.566406.625 1.425781 1.054687 2.128906.839844 1.347656 2.246094 3.164062 3.515625 4.121094 1.386719 1.035156 2.792969 2.148437 4.277344 3.066406 2.617188 1.582031 5.546875 2.5 8.085938 4.101562 1.484374.957032 2.988281 2.148438 4.433593 3.203125.722657.546875 1.191407 1.367188 2.128907 1.699219v-.15625c-.488282-.625-.605469-1.484375-1.054688-2.128906l-2.011719-2.011719c-1.933593-2.558594-4.394531-4.824219-7.011719-6.699219-2.089843-1.503906-6.757812-3.535156-7.617187-5.957031l-.15625-.15625c1.464844-.15625 3.203125-.703125 4.570313-1.074219 2.304687-.605468 4.335937-.449218 6.699218-1.054687 1.074219-.3125 2.148438-.625 3.222656-.917969v-.625c-1.191406-1.210938-2.050781-2.851562-3.359374-3.964844-3.417969-2.910156-7.148438-5.820312-10.996094-8.242187-2.128906-1.347657-4.765625-2.226563-7.011719-3.359375-.761719-.390625-2.089844-.585938-2.597656-1.230469-1.191407-1.503906-1.835938-3.417969-2.753907-5.175781-1.914062-3.691406-3.789062-7.714844-5.488281-11.601563-1.152343-2.636719-1.914062-5.253906-3.359375-7.636719-6.933594-11.386718-14.394531-18.28125-25.957031-25.039062-2.460937-1.445312-5.410156-1.992188-8.535156-2.734375-1.699219-.117187-3.359375-.214844-5.058594-.3125-1.015625-.429687-2.089844-1.679687-3.046875-2.304687-2.402344-1.503907-7.128906-4.121094-11.035156-4.179688zm16.542968 16.5625c-1.113281-.019531-1.914062.136719-2.753906.3125v.15625h.15625c.527344 1.09375 1.484375 1.796875 2.148438 2.734375.507812 1.074219.996094 2.148437 1.503906 3.222656l.15625-.15625c.9375-.664062 1.386719-1.738281 1.386719-3.359375-.390625-.390625-.449219-.898437-.761719-1.367187-.449219-.644531-1.289062-.996094-1.835938-1.542969zm-163.046874 63.417969c-1.503907.058593-3.144532.351562-4.921876.917969-2.96875.898437-4.4335932 2.675781-4.4335932 6.289062v37.8125h10.0195312v-36.894531l13.886719 31.542969c1.71875 3.925781 4.0625 5.332031 8.652343 5.332031 4.609376 0 6.855469-1.40625 8.574219-5.332031l13.886719-30.742188v36.09375h10v-37.8125c0-3.613281-1.445312-5.390625-4.433594-6.289062-7.109375-2.246094-11.894531-.3125-14.042968 4.550781l-14.257813 32.070312-13.789063-32.070312c-1.5625-3.652344-4.6875-5.644531-9.140624-5.46875zm121.894531.019531c-3.945313 0-16.230469.46875-16.230469 10v6.171875c0 4.375 3.847656 7.949219 12.1875 8.828125.9375.058594 1.875.136719 2.8125.136719 0 0 9.726562-.195313 10-.136719 5.625 0 5 4.375 5 5v5c0 .683594-.15625 5-5.058594 5h-24.941406v5h25.039062c3.28125 0 6.464844-.683594 9.003907-1.875 4.21875-1.933594 5.957031-4.550781 5.957031-7.988281v-7.148438c0-7.675781-9.53125-7.988281-15-7.988281h-10c-3.925781 0-4.53125-2.382812-5-5v-5c.46875-1.992188 1.347656-4.6875 4.824219-5h25.175781v-5zm38.671875 0c-7.382813 1.015625-9.980469 4.6875-9.980469 10v25c0 4.863281 2.714844 7.792969 8.300781 9.316406 1.875.527344 3.574219.742188 5.175782.742188l11.132812-.058594h6.542969l5.566406 5h11.25l-7.734375-6.972656c3.632812-1.503906 4.765625-3.808594 4.765625-8.125v-24.902344c0-5.3125-3.457031-8.984375-10.839844-10zm40.097656 0v34.785156c0 6.035156 3.417969 9.433594 12.460938 10.117188.839843.039062 1.699218.097656 2.539062.097656h25v-5h-23.105469c-5.15625 0-6.894531-2.167969-6.894531-5.253906v-34.746094zm-34.140625 5h12.871094c3.398437 0 5.683593 2.734375 6.191406 5 0 0 .078125 23.28125.078125 25s-.957031 2.5-.957031 2.5l-2.714844-2.5h-11.328125l5.566406 5h-9.707031c-3.476563 0-5.429687-2.578125-5.9375-5v-24.492188c0-2.65625 2.03125-5.507812 5.9375-5.507812zm-105.859375 10c.195312.195312 0 21.308594 0 21.71875.078125 4.375 5.625 8.203125 14.316406 8.28125h15.683594v.332031c0 .9375.683594 4.0625-5 4.667969-.058594 0-24.941406 0-25 0v5h26.074219c4.414062-.136719 13.984375-1.132812 13.925781-8.789062 0-.136719.039062-31.210938 0-31.210938h-10v25c-.15625 0-12.382812.039062-14.84375 0-4.824219-.078125-5.234375-2.832031-5.15625-3.886719v-21.113281zm0 0" fill="#025a84"/></svg>