<svg height="250pt" viewBox="0 0 250 250" width="250pt" xmlns="http://www.w3.org/2000/svg"><path d="m144.0625.15625-140 26.5625c-2.363281.449219-4.0625 2.597656-4.0625 5v186.5625c0 2.402344 1.699219 4.550781 4.0625 5l140 26.5625c.3125.058594.625.15625.9375.15625 1.152344 0 2.226562-.351562 3.125-1.09375 1.152344-.957031 1.875-2.421875 1.875-3.90625v-240c0-1.484375-.722656-2.949219-1.875-3.90625-1.152344-.957031-2.597656-1.210938-4.0625-.9375zm15.9375 29.84375v35h60v10h-60v25h60v10h-60v25h60v10h-60v30h60v10h-60v35h75c5.507812 0 10-4.492188 10-10v-170c0-5.507812-4.492188-10-10-10zm-136.875 48.28125h17.8125l10.15625 62.1875c.449219 2.636719.742188 6.308594.9375 10.78125h.3125c.136719-3.339844.722656-6.972656 1.5625-10.9375l13.125-62.03125h17.5l11.875 62.8125c.429688 2.304688.761719 5.605469 1.09375 10h.15625c.136719-3.4375.507812-6.953125 1.09375-10.46875l10-62.34375h16.5625l-19.21875 93.4375h-18.125l-12.03125-59.84375c-.644531-3.125-.957031-6.757812-1.09375-10.625h-.15625c-.3125 4.257812-.839844 7.871094-1.40625 10.625l-12.34375 59.84375h-18.75zm0 0" fill="#015a85"/></svg>