<svg height="250pt" viewBox="0 0 250 250" width="250pt" xmlns="http://www.w3.org/2000/svg"><path d="m216.679688 20h-183.339844c-7.363282 0-13.339844 5.976562-13.339844 13.339844v183.320312c0 7.363282 5.976562 13.339844 13.339844 13.339844h183.320312c7.363282 0 13.339844-5.976562 13.339844-13.320312v-183.339844c0-7.363282-5.976562-13.339844-13.320312-13.339844zm-81.679688 160.917969c0 19.980469-11.71875 29.082031-28.828125 29.082031-15.46875 0-26.621094-10.371094-31.171875-20l15.722656-9.511719c3.027344 5.371094 7.636719 9.511719 14.277344 9.511719 6.347656 0 10-2.480469 10-12.128906v-62.871094h20zm43.378906 29.082031c-17.714844 0-27.773437-8.925781-33.378906-20l15-10c4.082031 6.679688 8.535156 13.066406 17.949219 13.066406 7.910156 0 12.050781-3.945312 12.050781-9.414062 0-6.523438-4.296875-8.847656-12.988281-12.65625l-4.765625-2.050782c-13.769532-5.859374-22.929688-13.203124-22.929688-28.75 0-14.296874 10.917969-25.195312 27.949219-25.195312 12.128906 0 20.839844 4.21875 27.128906 15.273438l-14.84375 9.550781c-3.28125-5.878907-6.796875-8.183594-12.285156-8.183594-5.585937 0-9.121094 3.554687-9.121094 8.183594 0 5.722656 3.535157 8.027343 11.71875 11.582031l4.765625 2.050781c16.230469 6.933594 25.371094 14.023438 25.371094 29.960938 0 17.167969-13.496094 26.582031-31.621094 26.582031zm0 0" fill="#015a85"/></svg>