<svg height="250pt" viewBox="0 0 250 250" width="250pt" xmlns="http://www.w3.org/2000/svg"><path d="m215.148438 139.011719c-8.734376.042969-16.304688 2.144531-22.648438 5.269531-2.320312-4.632812-4.671875-8.707031-5.066406-11.734375-.457032-3.535156-.992188-5.648437-.4375-9.863281.554687-4.214844 2.992187-10.179688 2.953125-10.625-.035157-.445313-.542969-2.589844-5.585938-2.628906-5.039062-.035157-9.347656.96875-9.859375 2.300781-.507812 1.328125-1.480468 4.324219-2.078125 7.449219-.886719 4.570312-10.0625 20.871093-15.277343 29.394531-1.703126-3.328125-3.152344-6.257813-3.453126-8.578125-.460937-3.535156-.996093-5.644532-.441406-9.859375.554688-4.214844 2.996094-10.183594 2.957032-10.625-.035157-.445313-.546876-2.589844-5.585938-2.632813-5.039062-.035156-9.351562.972656-9.859375 2.300782-.511719 1.332031-1.050781 4.441406-2.082031 7.449218-1.035156 3.011719-13.234375 30.195313-16.429688 37.242188-1.628906 3.589844-3.042968 6.472656-4.042968 8.445312-.007813-.007812-.007813-.011718-.007813-.011718s-.058594.128906-.167969.355468c-.855468 1.675782-1.363281 2.605469-1.363281 2.605469s.003906.015625.011719.035156c-.679688 1.230469-1.402344 2.375-1.761719 2.375-.25 0-.757813-3.28125.109375-7.777343 1.8125-9.429688 6.171875-24.136719 6.132812-24.644532-.019531-.257812.8125-2.820312-2.847656-4.164062-3.554687-1.300782-4.828125.871094-5.152344.875-.3125.003906-.550781.765625-.550781.765625s3.964844-16.539063-7.558593-16.539063c-7.199219 0-17.179688 7.878906-22.101563 15.019532-3.097656 1.6875-9.738281 5.3125-16.78125 9.183593-2.707031 1.484375-5.46875 3.003907-8.085937 4.449219-.179688-.195312-.355469-.394531-.539063-.589844-13.972656-14.902344-39.792969-25.445312-38.695313-45.480468.398438-7.285157 2.929688-26.464844 49.617188-49.726563 38.246094-19.0625 68.867188-13.816406 74.15625-2.191406 7.558594 16.605469-16.363281 47.46875-56.078125 51.917969-15.136719 1.695312-23.101563-4.167969-25.085937-6.351563-2.085938-2.300781-2.394532-2.40625-3.175782-1.972656-1.269531.707031-.464844 2.734375 0 3.945312 1.183594 3.085938 6.050782 8.558594 14.351563 11.28125 7.296875 2.394531 25.0625 3.710938 46.554687-4.601562 24.0625-9.308594 42.855469-35.203125 37.339844-56.847657-5.617188-22.015624-42.117188-29.25-76.660156-16.980468-20.5625 7.304687-42.816406 18.769531-58.820313 33.734375-19.03125 17.800781-22.0625 33.289062-20.8125 39.757812 4.445313 23 36.140625 37.976563 48.835938 49.078125-.625.34375-1.214844.667969-1.75.964844-6.363281 3.148438-30.523438 15.792969-36.570313 29.152344-6.855468 15.15625 1.089844 26.03125 6.355469 27.496094 16.300781 4.535156 33.03125-3.625 42.019531-17.035157 8.992188-13.40625 7.890625-30.859375 3.765625-38.828125-.050781-.101562-.109375-.195312-.160156-.296875 1.644531-.972656 3.320313-1.960937 4.980469-2.933593 3.238281-1.902344 6.421875-3.675782 9.179687-5.179688-1.542969 4.230469-2.675781 9.296875-3.265625 16.625-.6875 8.605469 2.835938 19.722656 7.449219 24.097656 2.03125 1.925782 4.476563 1.972656 6.027344 1.972656 5.371093 0 7.820312-4.464843 10.515625-9.75 3.308594-6.480468 6.242187-14.023437 6.242187-14.023437s-3.683593 20.375 6.355469 20.375c3.65625 0 7.335938-4.742187 8.976562-7.15625.003907.023437.003907.039063.003907.039063s.097656-.15625.28125-.476563c.378906-.578125.59375-.949219.59375-.949219s.011719-.039062.019531-.105468c1.472656-2.550782 4.730469-8.371094 9.621094-17.96875 6.316406-12.402344 12.375-27.929688 12.375-27.929688s.566406 3.796875 2.410156 10.074219c1.085938 3.695312 3.394531 7.78125 5.214844 11.695312-1.464844 2.035157-2.363282 3.199219-2.363282 3.199219s.007813.019531.023438.058594c-1.171875 1.554687-2.484375 3.230468-3.859375 4.871094-4.984375 5.941406-10.925781 12.71875-11.71875 14.679687-.9375 2.304687-.71875 4.003906 1.09375 5.367187 1.320313.992188 3.675781 1.148438 6.132813.984376 4.480468-.300782 7.636718-1.414063 9.191406-2.089844 2.425781-.855469 5.25-2.207032 7.898437-4.15625 4.890625-3.59375 7.839844-8.738282 7.5625-15.554688-.15625-3.753906-1.355469-7.476562-2.871093-10.988281.445312-.640625.890624-1.28125 1.335937-1.9375 7.710937-11.273437 13.6875-23.660156 13.6875-23.660156s.566406 3.800781 2.410156 10.074219c.9375 3.179687 2.78125 6.648437 4.4375 10.046874-7.25 5.890626-11.746093 12.734376-13.3125 17.226563-2.882812 8.304687-.625 12.066406 3.617188 12.921875 1.917969.390625 4.632812-.488281 6.675781-1.355469 2.539062-.839843 5.589844-2.242187 8.4375-4.339843 4.890625-3.59375 9.597656-8.628907 9.3125-15.445313-.132812-3.097656-.972656-6.179687-2.109375-9.136719 6.144531-2.5625 14.101563-3.988281 24.238281-2.800781 21.746094 2.539063 26.011719 16.113281 25.195313 21.792969-.816407 5.6875-5.375 8.804687-6.902344 9.75-1.523437.945312-1.988281 1.269531-1.859375 1.972656.1875 1.019531.890625.980469 2.191406.757812 1.789063-.300781 11.414063-4.617187 11.828125-15.109374.523438-13.289063-12.238281-27.914063-34.839843-27.792969zm-167.589844 56.5c-7.199219 7.851562-17.261719 10.824219-21.578125 8.324219-4.660157-2.699219-2.816407-14.269532 6.023437-22.605469 5.386719-5.082031 12.339844-9.761719 16.957032-12.644531 1.050781-.632813 2.589843-1.5625 4.464843-2.6875.308594-.171876.484375-.273438.484375-.273438l-.003906-.011719c.359375-.214843.734375-.4375 1.113281-.667969 3.214844 11.871094.101563 22.320313-7.460937 30.566407zm52.464844-35.671875c-2.507813 6.113281-7.757813 21.761718-10.953126 20.921875-2.746093-.722657-4.414062-12.617188-.550781-24.316407 1.945313-5.890624 6.101563-12.929687 8.546875-15.664062 3.929688-4.394531 8.257813-5.835938 9.308594-4.050781 1.34375 2.269531-4.773438 19.273437-6.351562 23.109375zm43.351562 20.683594c-1.066406.554687-2.039062.90625-2.488281.636718-.335938-.199218.4375-.929687.4375-.929687s5.421875-5.835938 7.5625-8.492188c1.238281-1.542969 2.683593-3.378906 4.25-5.429687.011719.207031.019531.410156.019531.613281-.019531 6.988281-6.769531 11.703125-9.78125 13.601563zm33.394531-7.613282c-.792969-.566406-.660156-2.390625 1.945313-8.070312 1.023437-2.230469 3.359375-5.988282 7.425781-9.578125.46875 1.472656.757813 2.886719.75 4.207031-.054687 8.796875-6.332031 12.082031-10.121094 13.441406zm0 0" fill="#015a85"/></svg>