<svg height="250pt" viewBox="0 0 250 250" width="250pt" xmlns="http://www.w3.org/2000/svg"><path d="m30 20c-5.5 0-10 4.5-10 10v190c0 5.5 4.5 10 10 10h190c5.5 0 10-4.5 10-10v-190c0-5.5-4.5-10-10-10zm62.902344 50c9.949218 0 18.402344 2.402344 24.050781 7.851562 5.101563 5.101563 7.792969 12.953126 7.792969 22.402344 0 9.898438-2.394532 16.601563-6.542969 22.050782-5.75 8-15.847656 11.992187-25.449219 11.992187-2.050781 0-3.648437.003906-5.449218-.148437v45.851562h-12.304688v-107.902344c4.949219-1.296875 10.699219-2.097656 17.902344-2.097656zm2 8.203125c-2.898438 0-5.304688.300781-6.90625.800781v43.046875c1.453125.148438 2.902344.304688 4.953125.304688 12 0 20.144531-8.003907 20.144531-23.203125 0-11.050782-4.441406-20.949219-18.191406-20.949219zm63.652344 21.796875c6.351562 0 10.945312 1.953125 14.296874 4.003906l-3.347656 9.347656c-3.152344-2.101562-6.453125-3.546874-10.753906-3.546874-6.800781 0-10.300781 4.792968-10.300781 9.941406 0 5.148437 2 8.199218 9.949219 13.351562 9.300781 5.796875 16.601562 13 16.601562 23.75 0 15.597656-10.949219 23.152344-24.246094 23.152344-5.800781 0-12.253906-1.75-15.753906-4.5l3.152344-9.296875c2.851562 1.75 7.800781 3.992187 12.949218 3.992187 7.152344 0 11.796876-4.351562 11.796876-11.25 0-5.949218-2.152344-10.09375-10.300782-15.242187-10.449218-6.601563-16.09375-13.351563-16.09375-22.148437 0-12.703126 9.601563-21.554688 22.050782-21.554688zm0 0" fill="#015a85"/></svg>