<svg height="240pt" viewBox="0 0 240 240" width="240pt" xmlns="http://www.w3.org/2000/svg"><path d="m210 185c0 13.808594-11.191406 25-25 25h-130c-13.804688 0-25-11.191406-25-25v-130c0-13.808594 11.195312-25 25-25h130c13.808594 0 25 11.191406 25 25zm0 0" fill="#015a85"/><path d="m165.148438 128c-3.25-4.5-7.949219-7.601562-14-9.25 0 0 5.101562-1.851562 9.703124-8.75 2.75-4.398438 4.148438-9.699219 4.148438-15.898438 0-10.75-3.898438-19-11.699219-24.652343-7.800781-5.648438-16.601562-9.449219-31.550781-9.449219h-46.75v120h52.148438c14.152343-.101562 24.800781-3.148438 32.050781-9 7.199219-5.949219 10.800781-14.75 10.800781-26.5 0-6.5-1.601562-12-4.851562-16.5zm-60.148438-48h21.25c7.601562 0 13.75 6.148438 13.75 13.75s-6.148438 13.75-13.75 13.75c-.398438 0-21.25 0-21.25 0zm25 80h-25v-30h25c8.300781 0 15 6.699219 15 15s-6.699219 15-15 15zm0 0" fill="#fff"/></svg>